# xmcd
#
# Track frame offsets:
# 150
# 21095
# 34194
# 48852
# 66406
# 80053
# 95226
# 109957
# 121621
#
# Disc length: 1795 seconds
#
#
# Revision: 0
# Processed by: cddbd v1.5.2PL0 Copyright (c) Steve Scherf et al.
# Submitted via: FreeRIP 2.951 
#
DISCID=77070109
DTITLE=Perla - Nossas Canções - 
DYEAR=1900
DGENRE=
TTITLE0=Como um Pássaro
TTITLE1=Verãp Passado
TTITLE2=Quero um Gato
TTITLE3=Praia, Sol e Mar
TTITLE4=Brasil e Paraguai
TTITLE5=A Festa
TTITLE6=Ouro e Prata
TTITLE7=O Ritmo da Chuva
TTITLE8=Verano Pasado
EXTD=
EXTT0=
EXTT1=
EXTT2=
EXTT3=
EXTT4=
EXTT5=
EXTT6=
EXTT7=
EXTT8=
PLAYORDER=
